<svg width="219" height="39" viewBox="0 0 219 39" fill="none" xmlns="http://www.w3.org/2000/svg">
<path d="M60.475 31.1264L63.3325 31.1312C63.3947 31.1312 63.4258 31.1621 63.4258 31.2238L63.4209 34.6C63.4209 34.6236 63.4164 34.6471 63.4075 34.6689C63.3986 34.6908 63.3856 34.7107 63.3692 34.7274C63.3527 34.7442 63.3333 34.7574 63.3118 34.7665C63.2904 34.7755 63.2674 34.7802 63.2442 34.7802H53.0561C52.8957 34.7802 52.8155 34.7023 52.8155 34.5464L52.8106 31.3651C52.8106 31.3018 52.836 31.241 52.8811 31.1963C52.9262 31.1515 52.9874 31.1264 53.0512 31.1264H55.8449C56.0708 31.1264 56.1837 31.0127 56.1837 30.7853L56.1739 5.35944C56.1739 5.31293 56.1553 5.26832 56.1221 5.23543C56.089 5.20254 56.044 5.18406 55.9971 5.18406H53.5618C53.2574 5.18406 53.1068 5.03141 53.1101 4.72611L53.1298 2.12457C53.133 1.77055 53.3131 1.59354 53.6698 1.59354L59.9545 1.5838C60.0144 1.5838 60.0719 1.60741 60.1142 1.64944C60.1566 1.69147 60.1804 1.74847 60.1804 1.8079V14.8253C60.1812 14.8556 60.1907 14.8851 60.2077 14.9104C60.2247 14.9356 60.2485 14.9553 60.2762 14.9672C60.3038 14.9791 60.3341 14.9827 60.3633 14.9774C60.3925 14.9721 60.4194 14.9582 60.4406 14.9374C62.5846 12.9075 65.2425 12.0419 68.4143 12.3407C73.2653 12.7987 74.9248 16.4623 74.915 20.7982C74.9085 24.0785 74.9036 27.4384 74.9003 30.8779C74.9003 31.0403 74.9838 31.1215 75.1507 31.1215L78.1801 31.1312C78.2489 31.1312 78.2832 31.167 78.2832 31.2384L78.2636 34.6341C78.2623 34.6733 78.2457 34.7104 78.2173 34.7377C78.1889 34.765 78.1509 34.7802 78.1114 34.7802H68.1443C67.8169 34.7802 67.6533 34.6178 67.6533 34.293V31.6135C67.6533 31.2888 67.8169 31.1264 68.1443 31.1264H70.447C70.6238 31.1264 70.7121 31.0387 70.7121 30.8633C70.7318 26.9139 70.722 23.3932 70.6827 20.3012C70.6581 18.4938 69.6025 16.701 67.7613 16.1359C64.8497 15.2492 62.7728 16.3161 60.4504 17.9092C60.3672 17.9664 60.2992 18.0424 60.2522 18.1306C60.2052 18.2188 60.1805 18.3167 60.1804 18.4159L60.1755 30.8243C60.1755 31.0224 60.2753 31.1231 60.475 31.1264Z" fill="#160546"/>
<path d="M87.1211 7.58098C88.6586 7.58098 89.905 6.34425 89.905 4.81867C89.905 3.29309 88.6586 2.05637 87.1211 2.05637C85.5836 2.05637 84.3372 3.29309 84.3372 4.81867C84.3372 6.34425 85.5836 7.58098 87.1211 7.58098Z" fill="#160546"/>
<path d="M209.707 7.58098C211.244 7.58098 212.491 6.34425 212.491 4.81867C212.491 3.29309 211.244 2.05637 209.707 2.05637C208.169 2.05637 206.923 3.29309 206.923 4.81867C206.923 6.34425 208.169 7.58098 209.707 7.58098Z" fill="#160546"/>
<path d="M47.2722 14.8253C47.6781 14.8026 48.0758 14.7864 48.4653 14.7766C48.7435 14.7669 48.8826 14.9 48.8826 15.1761L48.8875 18.2064C48.8875 18.4564 48.7615 18.5815 48.5095 18.5815H45.0824C44.8467 18.5815 44.6748 18.4776 44.5668 18.2697C43.7158 16.6068 42.1233 15.6714 39.7895 15.4635C36.5931 15.1761 33.8878 17.4805 33.0531 20.423C31.9533 24.2864 32.6799 28.5297 36.1021 30.8925C37.1038 31.5843 38.3083 31.862 39.7158 31.7256C42.3836 31.4658 44.2215 30.2105 45.2297 27.9597C45.2386 27.9398 45.2515 27.922 45.2676 27.9072C45.2837 27.8925 45.3027 27.8811 45.3233 27.8738C45.344 27.8665 45.3659 27.8635 45.3878 27.8648C45.4097 27.8662 45.431 27.8719 45.4506 27.8817L48.5488 29.4943C48.6371 29.5398 48.6568 29.6064 48.6077 29.6941C46.647 33.153 43.9727 35.0124 40.5849 35.2723C37.7339 35.4931 35.3411 34.9459 33.4066 33.6305C31.0007 31.9935 29.495 29.72 28.8895 26.81C27.5884 20.5253 30.2643 13.851 36.8534 12.2335C39.7306 11.5288 42.3623 11.9169 44.7485 13.3979C45.5095 13.8705 46.3246 14.8789 47.2722 14.8253Z" fill="#160546"/>
<path d="M100.005 24.5787C100.034 26.8197 100.808 28.6271 102.327 30.001C105.425 32.8023 110.428 31.7548 113.831 29.8061C113.877 29.7801 113.913 29.7882 113.939 29.8305L115.441 32.3053C115.487 32.38 115.474 32.4417 115.402 32.4905C113.176 34.0429 110.659 34.9605 107.851 35.243C101.571 35.8715 97.1618 32.5051 96.2437 26.2887C95.6299 22.1525 96.4401 17.2271 99.6708 14.5087C103.23 11.5125 109.23 11.001 112.893 14.2505C115.387 16.4623 116.178 20.8323 116.05 24.0282C116.049 24.07 116.031 24.1096 116 24.1388C115.968 24.1679 115.927 24.1841 115.883 24.1841L100.393 24.1889C100.131 24.1889 100.001 24.3188 100.005 24.5787ZM100.515 21.183L111.661 21.1051C111.699 21.1051 111.735 21.0902 111.761 21.0637C111.788 21.0372 111.803 21.0013 111.803 20.9638V20.7494C111.799 20.0447 111.658 19.3478 111.389 18.6985C111.12 18.0491 110.729 17.4602 110.237 16.9652C109.745 16.4702 109.162 16.079 108.522 15.8138C107.881 15.5486 107.196 15.4147 106.505 15.4197L105.592 15.4294C104.198 15.4395 102.865 16.0137 101.887 17.0259C100.908 18.0381 100.363 19.4055 100.373 20.8274V21.0417C100.373 21.0603 100.377 21.0787 100.384 21.0958C100.391 21.113 100.401 21.1285 100.415 21.1416C100.428 21.1548 100.444 21.1652 100.461 21.1723C100.478 21.1794 100.497 21.183 100.515 21.183Z" fill="#160546"/>
<path d="M149.433 24.1889C149.161 24.1889 149.032 24.3237 149.045 24.5933C149.169 27.0324 150.022 28.8967 151.603 30.1861C154.721 32.7243 159.375 31.7353 162.709 29.8987C162.892 29.798 163.036 29.837 163.141 30.0156L164.423 32.1884C164.521 32.354 164.49 32.4905 164.329 32.5976C162.058 34.1339 159.491 35.0222 156.631 35.2625C150.498 35.774 146.266 32.4076 145.323 26.3569C144.675 22.1964 145.524 17.081 148.858 14.3966C152.389 11.5564 158.109 11.0546 161.786 14.0848C164.423 16.2576 165.233 20.6958 165.12 23.9307C165.113 24.0996 165.025 24.184 164.855 24.184L149.433 24.1889ZM149.585 21.1733L160.74 21.0953C160.778 21.0953 160.814 21.0804 160.841 21.0539C160.868 21.0275 160.883 20.9915 160.883 20.954V20.8761C160.878 20.1562 160.741 19.4442 160.481 18.7808C160.221 18.1175 159.842 17.5157 159.366 17.0099C158.89 16.5041 158.326 16.1042 157.707 15.833C157.087 15.5618 156.425 15.4247 155.757 15.4294L154.49 15.4392C153.141 15.4487 151.852 16.035 150.905 17.0692C149.959 18.1034 149.433 19.5008 149.443 20.954V21.032C149.443 21.0695 149.458 21.1054 149.484 21.1319C149.511 21.1584 149.547 21.1733 149.585 21.1733Z" fill="#160546"/>
<path d="M17.3267 32.9874C16.3103 33.7571 15.1369 34.6584 13.9241 34.98C9.06822 36.2759 3.79498 33.9276 3.94719 28.3933C4.12886 21.7335 12.7605 21.2123 17.4249 22.0064C17.5918 22.0356 17.6802 21.9658 17.69 21.7969C17.857 18.8641 17.3758 16.0189 13.7719 15.7315C11.281 15.5334 8.98148 15.9767 6.8735 17.0615C6.70001 17.1492 6.57072 17.107 6.48561 16.9348L5.42998 14.8156C5.3416 14.637 5.38579 14.4973 5.56255 14.3966C7.88003 13.0682 10.3775 12.3261 13.0551 12.1702C15.8783 12.0046 19.433 12.9935 20.7489 15.6974C21.3676 16.9576 21.6834 18.3915 21.6965 19.9992C21.726 23.4354 21.7129 27.0389 21.6572 30.8097C21.6566 30.851 21.6642 30.8921 21.6797 30.9305C21.6952 30.9689 21.7183 31.0039 21.7475 31.0333C21.7768 31.0628 21.8116 31.0862 21.8501 31.1022C21.8885 31.1181 21.9298 31.1264 21.9715 31.1264H23.7587C24.0336 31.1264 24.1711 31.2644 24.1711 31.5405V34.4294C24.1711 34.6633 24.0533 34.7802 23.8176 34.7802H17.9355C17.7686 34.7802 17.6851 34.6974 17.6851 34.5317L17.6802 33.1628C17.6802 32.8705 17.5624 32.812 17.3267 32.9874ZM10.9831 24.9246C9.16315 25.4247 8.10916 26.4186 7.82111 27.9061C7.46759 29.7525 8.50359 31.3943 10.3792 31.8376C12.4544 32.3281 14.4839 31.9643 16.4675 30.7464C16.857 30.506 17.1958 30.2121 17.4838 29.8646C17.6045 29.7166 17.6704 29.5309 17.6704 29.3384L17.6851 24.9635C17.6851 24.7557 17.582 24.6534 17.3758 24.6566L12.4561 24.7151C11.9585 24.7216 11.4675 24.7914 10.9831 24.9246Z" fill="#160546"/>
<path d="M193.607 21.753C193.597 19.8238 193.725 17.953 192.119 16.6474C189.797 14.7669 185.049 15.8874 182.702 17.0907C182.578 17.1557 182.485 17.1248 182.422 16.9982L181.318 14.7864C181.242 14.6337 181.277 14.5152 181.421 14.4307C185.349 12.0777 191.226 11.0448 195.139 13.8656C196.975 15.1859 197.574 17.9384 197.594 20.1551C197.633 23.9064 197.625 27.4839 197.569 30.8877C197.566 31.0468 197.645 31.1264 197.805 31.1264H199.602C199.923 31.1264 200.083 31.2871 200.083 31.6087L200.078 34.3028C200.078 34.6211 199.918 34.7802 199.597 34.7802L193.966 34.7851C193.717 34.7851 193.592 34.6617 193.592 34.4148L193.583 33.0848C193.579 32.8088 193.471 32.76 193.259 32.9387C191.206 34.6974 189.385 35.4769 186.483 35.2966C178.583 34.8046 177.257 24.7053 184.73 22.4546C187.48 21.6231 190.336 21.4753 193.298 22.0112C193.504 22.047 193.607 21.9609 193.607 21.753ZM186.291 25.1194C182.825 26.4007 182.629 30.9705 186.409 31.862C188.35 32.3232 190.3 31.9708 192.257 30.8048C192.915 30.4151 193.632 29.8792 193.607 29.0218C193.568 27.6544 193.57 26.3147 193.612 25.0025C193.619 24.7947 193.517 24.6891 193.308 24.6859C191.226 24.642 188.255 24.3936 186.291 25.1194Z" fill="#160546"/>
<path d="M89.301 31.1263H92.3304C92.3734 31.1263 92.4146 31.1433 92.445 31.1734C92.4754 31.2036 92.4925 31.2445 92.4925 31.2871L92.4777 34.6194C92.4777 34.6621 92.4607 34.703 92.4303 34.7331C92.3999 34.7633 92.3587 34.7802 92.3157 34.7802H82.0589C82.0376 34.7802 82.0166 34.776 81.9969 34.768C81.9773 34.7599 81.9594 34.748 81.9443 34.7331C81.9293 34.7182 81.9174 34.7005 81.9092 34.6809C81.9011 34.6614 81.8969 34.6405 81.8969 34.6194L81.8871 31.2871C81.8871 31.2445 81.9041 31.2036 81.9345 31.1734C81.9649 31.1433 82.0061 31.1263 82.0491 31.1263H84.9214C84.9427 31.1263 84.9637 31.1222 84.9834 31.1141C85.0031 31.106 85.0209 31.0942 85.036 31.0793C85.051 31.0643 85.0629 31.0466 85.0711 31.0271C85.0792 31.0076 85.0834 30.9867 85.0834 30.9656V16.433C85.0834 16.4119 85.0792 16.391 85.0711 16.3715C85.0629 16.352 85.051 16.3343 85.036 16.3193C85.0209 16.3044 85.0031 16.2926 84.9834 16.2845C84.9637 16.2764 84.9427 16.2722 84.9214 16.2722L82.0295 16.2674C81.9865 16.2674 81.9453 16.2504 81.9149 16.2203C81.8845 16.1901 81.8674 16.1492 81.8674 16.1066L81.8576 12.7743C81.8576 12.7317 81.8747 12.6908 81.9051 12.6606C81.9355 12.6305 81.9767 12.6135 82.0196 12.6135H88.977C89.0199 12.6135 89.0612 12.6305 89.0915 12.6606C89.1219 12.6908 89.139 12.7317 89.139 12.7743V30.9656C89.139 31.0082 89.1561 31.0491 89.1865 31.0793C89.2168 31.1094 89.2581 31.1263 89.301 31.1263Z" fill="#160546"/>
<path d="M125.521 16.4866L130.79 31.214C130.802 31.2473 130.824 31.2761 130.853 31.2964C130.882 31.3168 130.916 31.3277 130.952 31.3277C130.987 31.3277 131.022 31.3168 131.051 31.2964C131.08 31.2761 131.102 31.2473 131.114 31.214L136.269 16.4866C136.278 16.4607 136.28 16.4331 136.276 16.4061C136.272 16.3791 136.261 16.3536 136.244 16.3316C136.228 16.3097 136.207 16.2919 136.182 16.2799C136.157 16.2679 136.13 16.2619 136.102 16.2625L135.174 16.2722C135.13 16.2723 135.087 16.255 135.055 16.224C135.022 16.1931 135.004 16.151 135.003 16.1066L134.968 12.784C134.968 12.7388 134.986 12.6954 135.018 12.6635C135.051 12.6315 135.094 12.6135 135.14 12.6135H141.886C141.932 12.6135 141.975 12.6315 142.008 12.6635C142.04 12.6954 142.058 12.7388 142.058 12.784L142.063 16.1017C142.063 16.1241 142.059 16.1463 142.05 16.167C142.041 16.1877 142.029 16.2065 142.013 16.2223C141.997 16.2381 141.978 16.2507 141.957 16.2593C141.936 16.2678 141.914 16.2722 141.891 16.2722H140.256C140.221 16.2717 140.187 16.2817 140.158 16.3009C140.129 16.32 140.107 16.3474 140.094 16.3794L132.872 35.0189C132.859 35.0509 132.836 35.0783 132.807 35.0975C132.778 35.1166 132.744 35.1266 132.71 35.1261H128.978C128.943 35.1266 128.909 35.1166 128.88 35.0975C128.851 35.0783 128.829 35.0509 128.816 35.0189L121.618 16.3746C121.606 16.3416 121.584 16.3132 121.555 16.2931C121.526 16.2731 121.491 16.2624 121.456 16.2625L119.983 16.2722C119.938 16.2722 119.894 16.2543 119.862 16.2223C119.829 16.1903 119.811 16.147 119.811 16.1017L119.806 12.784C119.806 12.7388 119.824 12.6954 119.857 12.6635C119.889 12.6315 119.933 12.6135 119.978 12.6135H127.377C127.423 12.6135 127.467 12.6315 127.499 12.6635C127.531 12.6954 127.549 12.7388 127.549 12.784L127.544 16.1017C127.544 16.1241 127.54 16.1463 127.531 16.167C127.523 16.1877 127.51 16.2065 127.494 16.2223C127.478 16.2381 127.459 16.2507 127.438 16.2593C127.417 16.2678 127.395 16.2722 127.373 16.2722L125.683 16.2576C125.656 16.2575 125.629 16.2641 125.604 16.2767C125.579 16.2893 125.558 16.3077 125.542 16.3302C125.526 16.3526 125.516 16.3786 125.513 16.4058C125.509 16.4331 125.512 16.4608 125.521 16.4866Z" fill="#160546"/>
<path d="M207.654 30.9656L207.659 16.4379C207.659 16.3952 207.642 16.3544 207.612 16.3242C207.582 16.2941 207.54 16.2771 207.497 16.2771L204.571 16.2625C204.55 16.2625 204.529 16.2583 204.509 16.2503C204.489 16.2422 204.471 16.2303 204.456 16.2154C204.441 16.2005 204.429 16.1828 204.421 16.1633C204.413 16.1437 204.409 16.1228 204.409 16.1017L204.414 12.7743C204.414 12.7317 204.431 12.6908 204.461 12.6606C204.492 12.6305 204.533 12.6135 204.576 12.6135H211.553C211.596 12.6135 211.637 12.6305 211.667 12.6606C211.698 12.6908 211.715 12.7317 211.715 12.7743L211.7 30.9656C211.7 31.0082 211.717 31.0491 211.748 31.0793C211.778 31.1094 211.819 31.1263 211.862 31.1263H214.803C214.846 31.1263 214.887 31.1433 214.918 31.1734C214.948 31.2036 214.965 31.2445 214.965 31.2871V34.6194C214.965 34.6621 214.948 34.703 214.918 34.7331C214.887 34.7633 214.846 34.7802 214.803 34.7802L204.65 34.7753C204.607 34.7753 204.565 34.7584 204.535 34.7282C204.505 34.6981 204.488 34.6572 204.488 34.6146L204.473 31.2871C204.473 31.2445 204.49 31.2036 204.52 31.1734C204.551 31.1433 204.592 31.1263 204.635 31.1263H207.492C207.535 31.1263 207.577 31.1094 207.607 31.0793C207.637 31.0491 207.654 31.0082 207.654 30.9656Z" fill="#160546"/>
<path d="M173.319 34.9897C174.857 34.9897 176.103 33.753 176.103 32.2274C176.103 30.7018 174.857 29.4651 173.319 29.4651C171.782 29.4651 170.536 30.7018 170.536 32.2274C170.536 33.753 171.782 34.9897 173.319 34.9897Z" fill="#160546"/>
<path d="M169.996 31.976C169.996 32.976 170.341 33.7837 171.029 34.476C171.718 35.1684 172.521 35.476 173.477 35.476C174.434 35.476 175.275 35.1684 175.964 34.476C176.652 33.7837 176.996 32.976 176.996 31.976C176.996 31.0145 176.652 30.2068 175.964 29.5145C175.275 28.8222 174.434 28.476 173.477 28.476C172.521 28.476 171.718 28.8222 171.029 29.5145C170.341 30.2068 169.996 31.0145 169.996 31.976Z" fill="#47BAB7"/>
</svg>
