<svg width="18" height="18" viewBox="0 0 18 18" fill="none" xmlns="http://www.w3.org/2000/svg">
<path fill-rule="evenodd" clip-rule="evenodd" d="M9.00391 0.75C9.41812 0.75 9.75391 1.08579 9.75391 1.5V8.25H16.5039C16.9181 8.25 17.2539 8.58579 17.2539 9C17.2539 9.41421 16.9181 9.75 16.5039 9.75H9.75391V16.5C9.75391 16.9142 9.41812 17.25 9.00391 17.25C8.58969 17.25 8.25391 16.9142 8.25391 16.5V9.75H1.50391C1.08969 9.75 0.753906 9.41421 0.753906 9C0.753906 8.58579 1.08969 8.25 1.50391 8.25H8.25391V1.5C8.25391 1.08579 8.58969 0.75 9.00391 0.75Z" fill="white"/>
</svg>
